<svg width="105" height="105" viewBox="0 0 105 105" fill="none" xmlns="http://www.w3.org/2000/svg">
<path d="M77.2337 72.9812L65.8989 61.6464C68.6278 58.0136 70.101 53.5916 70.096 49.048C70.096 37.4422 60.6538 28 49.048 28C37.4422 28 28 37.4422 28 49.048C28 60.6538 37.4422 70.096 49.048 70.096C53.5916 70.101 58.0136 68.6278 61.6464 65.8989L72.9812 77.2337C73.5549 77.7466 74.3033 78.0204 75.0726 77.9988C75.8419 77.9773 76.5737 77.6621 77.1179 77.1179C77.6621 76.5737 77.9773 75.8419 77.9988 75.0726C78.0204 74.3033 77.7466 73.5549 77.2337 72.9812ZM34.0137 49.048C34.0137 46.0745 34.8955 43.1678 36.5474 40.6954C38.1994 38.223 40.5475 36.296 43.2946 35.1581C46.0418 34.0202 49.0647 33.7225 51.981 34.3026C54.8974 34.8827 57.5763 36.3146 59.6788 38.4172C61.7814 40.5197 63.2133 43.1986 63.7934 46.115C64.3735 49.0313 64.0758 52.0542 62.9379 54.8014C61.8 57.5485 59.873 59.8966 57.4006 61.5485C54.9282 63.2005 52.0215 64.0823 49.048 64.0823C45.0621 64.0775 41.2409 62.492 38.4224 59.6736C35.604 56.8551 34.0185 53.0339 34.0137 49.048Z" fill="white"/>
</svg>
