<svg width="105" height="105" viewBox="0 0 105 105" fill="none" xmlns="http://www.w3.org/2000/svg">
<path d="M83.0344 77.6763L68.7526 63.3945C72.1911 58.8171 74.0472 53.2454 74.041 47.5205C74.041 32.8972 62.1438 21 47.5205 21C32.8972 21 21 32.8972 21 47.5205C21 62.1438 32.8972 74.041 47.5205 74.041C53.2454 74.0472 58.8171 72.1911 63.3945 68.7526L77.6763 83.0344C78.3992 83.6807 79.3421 84.0256 80.3114 83.9985C81.2807 83.9714 82.2029 83.5742 82.8885 82.8885C83.5742 82.2029 83.9714 81.2807 83.9985 80.3114C84.0256 79.3421 83.6807 78.3992 83.0344 77.6763ZM28.5773 47.5205C28.5773 43.7739 29.6883 40.1114 31.7698 36.9962C33.8513 33.881 36.8098 31.453 40.2712 30.0192C43.7326 28.5855 47.5415 28.2103 51.2161 28.9413C54.8907 29.6722 58.2661 31.4764 60.9153 34.1256C63.5646 36.7749 65.3688 40.1502 66.0997 43.8248C66.8306 47.4995 66.4555 51.3083 65.0217 54.7697C63.5879 58.2311 61.1599 61.1897 58.0448 63.2712C54.9296 65.3527 51.2671 66.4637 47.5205 66.4637C42.4983 66.4576 37.6835 64.4599 34.1323 60.9087C30.581 57.3575 28.5833 52.5427 28.5773 47.5205Z" fill="#9DAFAB"/>
</svg>
